<svg width="50" height="38" viewBox="0 0 50 38" fill="none" xmlns="http://www.w3.org/2000/svg">
<path d="M10.4156 16.9156C12.7125 16.9156 14.5813 15.0469 14.5813 12.75C14.5813 10.4531 12.7125 8.58435 10.4156 8.58435C8.11875 8.58435 6.25 10.4531 6.25 12.75C6.25 15.0469 8.11875 16.9156 10.4156 16.9156Z" fill="#A0D9FA"/>
<path d="M43.75 4.41563H21.6969L18.1406 0.859374C17.75 0.468749 17.2187 0.25 16.6687 0.25H6.25C2.80312 0.25 0 3.05312 0 6.5V31.5C0 34.9469 2.80312 37.75 6.25 37.75H43.75C47.1969 37.75 50 34.9469 50 31.5V10.6656C50 7.21875 47.1969 4.41563 43.75 4.41563ZM6.25 4.41563H15.8062L19.3625 7.97187C19.7531 8.3625 20.2844 8.58125 20.8344 8.58125H43.75C44.9 8.58125 45.8344 9.51563 45.8344 10.6656V25.1219L34.875 14.1625C33.45 12.7375 31.1313 12.7375 29.7063 14.1625L19.7906 24.0781L17.1656 21.4531C15.7406 20.0281 13.4219 20.0281 11.9969 21.4531L4.1625 29.2875V6.5C4.16562 5.35 5.1 4.41563 6.25 4.41563Z" fill="#35AEF2"/>
</svg>
